<mxfile host="Electron" agent="Mozilla/5.0 (Macintosh; Intel Mac OS X 10_15_7) AppleWebKit/537.36 (KHTML, like Gecko) draw.io/24.7.17 Chrome/128.0.6613.36 Electron/32.0.1 Safari/537.36" version="24.7.17">
  <diagram name="Page-1" id="_nYNn86NnkzUG_CxbdTY">
    <mxGraphModel dx="943" dy="760" grid="1" gridSize="10" guides="1" tooltips="1" connect="1" arrows="1" fold="1" page="1" pageScale="1" pageWidth="850" pageHeight="1100" math="0" shadow="0">
      <root>
        <mxCell id="0" />
        <mxCell id="1" parent="0" />
        <mxCell id="f64dAMvXYWGc2JNVotDt-1" value="User" style="shape=umlActor;verticalLabelPosition=bottom;verticalAlign=top;html=1;outlineConnect=0;" parent="1" vertex="1">
          <mxGeometry x="20" y="400" width="30" height="60" as="geometry" />
        </mxCell>
        <mxCell id="f64dAMvXYWGc2JNVotDt-3" value="" style="rounded=0;whiteSpace=wrap;html=1;strokeColor=#191a19;" parent="1" vertex="1">
          <mxGeometry x="120" y="70" width="640" height="650" as="geometry" />
        </mxCell>
        <mxCell id="f64dAMvXYWGc2JNVotDt-7" value="Register Account" style="ellipse;whiteSpace=wrap;html=1;" parent="1" vertex="1">
          <mxGeometry x="210" y="160" width="120" height="80" as="geometry" />
        </mxCell>
        <mxCell id="f64dAMvXYWGc2JNVotDt-9" value="Login" style="ellipse;whiteSpace=wrap;html=1;" parent="1" vertex="1">
          <mxGeometry x="305" y="230" width="120" height="80" as="geometry" />
        </mxCell>
        <mxCell id="f64dAMvXYWGc2JNVotDt-12" value="Logout" style="ellipse;whiteSpace=wrap;html=1;" parent="1" vertex="1">
          <mxGeometry x="365" y="310" width="120" height="80" as="geometry" />
        </mxCell>
        <mxCell id="f64dAMvXYWGc2JNVotDt-14" value="Update Profile" style="ellipse;whiteSpace=wrap;html=1;" parent="1" vertex="1">
          <mxGeometry x="330" y="400" width="120" height="80" as="geometry" />
        </mxCell>
        <mxCell id="f64dAMvXYWGc2JNVotDt-16" value="View Public Profile&lt;div&gt;(Game History/Stats)&lt;/div&gt;" style="ellipse;whiteSpace=wrap;html=1;" parent="1" vertex="1">
          <mxGeometry x="320" y="500" width="120" height="80" as="geometry" />
        </mxCell>
        <mxCell id="f64dAMvXYWGc2JNVotDt-18" value="&amp;nbsp;View History/Stats" style="ellipse;whiteSpace=wrap;html=1;" parent="1" vertex="1">
          <mxGeometry x="280" y="590" width="120" height="80" as="geometry" />
        </mxCell>
        <mxCell id="f64dAMvXYWGc2JNVotDt-20" value="Verify Credentials" style="ellipse;whiteSpace=wrap;html=1;" parent="1" vertex="1">
          <mxGeometry x="520" y="150" width="120" height="80" as="geometry" />
        </mxCell>
        <mxCell id="InK3rCsuDzaIhLU2nQub-2" value="" style="endArrow=classic;html=1;rounded=0;entryX=0.222;entryY=0.928;entryDx=0;entryDy=0;entryPerimeter=0;" parent="1" target="f64dAMvXYWGc2JNVotDt-7" edge="1">
          <mxGeometry width="50" height="50" relative="1" as="geometry">
            <mxPoint x="70" y="430" as="sourcePoint" />
            <mxPoint x="289.8800000000001" y="275.03" as="targetPoint" />
          </mxGeometry>
        </mxCell>
        <mxCell id="InK3rCsuDzaIhLU2nQub-3" value="" style="endArrow=classic;html=1;rounded=0;entryX=0.074;entryY=0.729;entryDx=0;entryDy=0;entryPerimeter=0;" parent="1" target="f64dAMvXYWGc2JNVotDt-9" edge="1">
          <mxGeometry width="50" height="50" relative="1" as="geometry">
            <mxPoint x="70" y="430" as="sourcePoint" />
            <mxPoint x="289.8800000000001" y="300.05999999999995" as="targetPoint" />
          </mxGeometry>
        </mxCell>
        <mxCell id="InK3rCsuDzaIhLU2nQub-4" value="" style="endArrow=classic;html=1;rounded=0;entryX=0.02;entryY=0.617;entryDx=0;entryDy=0;entryPerimeter=0;" parent="1" target="f64dAMvXYWGc2JNVotDt-12" edge="1">
          <mxGeometry width="50" height="50" relative="1" as="geometry">
            <mxPoint x="70" y="430" as="sourcePoint" />
            <mxPoint x="359" y="348" as="targetPoint" />
          </mxGeometry>
        </mxCell>
        <mxCell id="InK3rCsuDzaIhLU2nQub-5" value="" style="endArrow=classic;html=1;rounded=0;entryX=0.005;entryY=0.604;entryDx=0;entryDy=0;entryPerimeter=0;" parent="1" target="f64dAMvXYWGc2JNVotDt-14" edge="1">
          <mxGeometry width="50" height="50" relative="1" as="geometry">
            <mxPoint x="70" y="430" as="sourcePoint" />
            <mxPoint x="402" y="429" as="targetPoint" />
          </mxGeometry>
        </mxCell>
        <mxCell id="InK3rCsuDzaIhLU2nQub-6" value="" style="endArrow=classic;html=1;rounded=0;entryX=0;entryY=0.5;entryDx=0;entryDy=0;" parent="1" target="f64dAMvXYWGc2JNVotDt-16" edge="1">
          <mxGeometry width="50" height="50" relative="1" as="geometry">
            <mxPoint x="70" y="430" as="sourcePoint" />
            <mxPoint x="471" y="498" as="targetPoint" />
          </mxGeometry>
        </mxCell>
        <mxCell id="InK3rCsuDzaIhLU2nQub-10" value="" style="endArrow=classic;html=1;rounded=0;entryX=0.025;entryY=0.588;entryDx=0;entryDy=0;entryPerimeter=0;" parent="1" target="f64dAMvXYWGc2JNVotDt-18" edge="1">
          <mxGeometry width="50" height="50" relative="1" as="geometry">
            <mxPoint x="70" y="430" as="sourcePoint" />
            <mxPoint x="450" y="559.2" as="targetPoint" />
          </mxGeometry>
        </mxCell>
        <mxCell id="InK3rCsuDzaIhLU2nQub-13" value="" style="endArrow=blockThin;html=1;strokeColor=#191a19;bendable=1;rounded=0;endFill=1;endSize=4;edgeStyle=entityRelationEdgeStyle;startArrow=none;startFill=0;startSize=4;jumpStyle=none;jumpSize=0;targetPerimeterSpacing=15;dashed=1;strokeWidth=1.5;dashPattern=1 4;entryX=0.008;entryY=0.637;entryDx=0;entryDy=0;entryPerimeter=0;exitX=0.989;exitY=0.435;exitDx=0;exitDy=0;exitPerimeter=0;" parent="1" source="f64dAMvXYWGc2JNVotDt-9" target="f64dAMvXYWGc2JNVotDt-20" edge="1">
          <mxGeometry width="50" height="50" relative="1" as="geometry">
            <mxPoint x="495" y="238" as="sourcePoint" />
            <mxPoint x="660" y="170" as="targetPoint" />
          </mxGeometry>
        </mxCell>
        <mxCell id="InK3rCsuDzaIhLU2nQub-14" value="Include" style="edgeLabel;html=1;align=center;verticalAlign=middle;resizable=0;points=[];" parent="InK3rCsuDzaIhLU2nQub-13" connectable="0" vertex="1">
          <mxGeometry x="-0.1735" y="-2" relative="1" as="geometry">
            <mxPoint y="-1" as="offset" />
          </mxGeometry>
        </mxCell>
      </root>
    </mxGraphModel>
  </diagram>
</mxfile>
